<?xml version="1.0" encoding="utf-8" ?>
<svg baseProfile="full" height="200mm" version="1.1" viewBox="0,0,200,200" width="200mm" xmlns="http://www.w3.org/2000/svg" xmlns:ev="http://www.w3.org/2001/xml-events" xmlns:xlink="http://www.w3.org/1999/xlink"><defs /><rect fill="#1a1a1a" height="200" width="200" x="0" y="0" /><text alignment-baseline="middle" fill="#e1ed5e" style="dominant-baseline: central; font-size:9.0px; font-family:Arial;" text-anchor="middle" x="100.0" y="100.0">2023</text><line stroke="#e1ed5e" stroke-width="0.3" x1="100.0" x2="100.0" y1="15.0" y2="10.0" /><path d="M 100.0 14.0 a86.0,86.0 0 0,1 42.46469731375804,11.215312516191453" fill="none" id="id85" stroke="none" /><text fill="#e1ed5e" style="font-size:6.75px; font-family:Arial;" text-anchor="middle"><textPath startOffset="22.20632615414155" xlink:href="#id85">January</textPath></text><path d="M 100.0 79.0 l 0.0 -29.540630674178757 a50.54063067417876,50.54063067417876 0 0,0 0.8699738761351422,0.007488139812450126 l -0.5084933968626139 29.536253910974867" fill="#c8ff1d" stroke="none" /><path d="M 100.36148047927253 79.00311137660856 l 0.5735296644378483 -33.3139385856949 a54.31887513658649,54.31887513658649 0 0,0 0.9347330800256236,0.02414139772585593 l -1.1468893796583397 33.29913039582668" fill="#97ff23" stroke="none" /><path d="M 101.08401301168833 79.027996857942 l 1.3240334245313963 -25.615590255890663 a46.64978613296721,46.64978613296721 0 0,0 0.8015720595376272,0.048353015629653495 l -1.7647675329086354 25.589003970880704" fill="#fdff18" stroke="none" /><path d="M 101.80526077348638 79.07773832637324 l 2.656182066740468 -30.78410447362342 a51.898485260844666,51.898485260844666 0 0,0 0.8893790851169194,0.08445726067982931 l -3.1856862789476317 30.733821668428412" fill="#b6ff1f" stroke="none" /><path d="M 102.16513564639614 79.11191278185805 l 3.866965104595361 -37.30644059587988 a58.50631852173807,58.50631852173807 0 0,0 1.0008294127654278,0.11245484586072783 l -4.508561220870514 37.23434979654855" fill="#64ff29" stroke="none" /><path d="M 102.52436894288641 79.15227682838746 l 1.9840179579836643 -16.385186987864433 a37.504868369208026,37.504868369208026 0 0,0 0.6402353771244302,0.08312092682910815 l -2.2657680636159405 16.348607737871188" fill="#ff7b0b" stroke="none" /><path d="M 103.2404852339499 79.25152402106235 l 3.8870659009260455 -24.888461959014897 a46.19017308403167,46.19017308403167 0 0,0 0.7845088429744922,0.1294506810219441 l -4.314903950039413 24.81786501505333" fill="#fffb17" stroke="none" /><path d="M 103.59715602781102 79.31037775812273 l 4.967000899881807 -28.568505646988765 a49.997079384680376,49.997079384680376 0 0,0 0.8466288266570436,0.15471600655630324 l -5.458024847641751 28.478774159081723" fill="#cfff1d" stroke="none" /><path d="M 104.307194497241 79.44645832069477 l 6.414261007236623 -30.608272052406345 a52.273136432137335,52.273136432137335 0 0,0 0.8790780220154583,0.192132406893047 l -6.940181753405608 30.493326147417427" fill="#b1ff20" stroke="none" /><path d="M 104.66035177308747 79.52364482259891 l 8.721171735622226 -38.31852587887474 a60.29845113960866,60.29845113960866 0 0,0 1.0100746106553296,0.2390520261403104 l -9.37947003324008 38.16272794059356" fill="#4fff2b" stroke="none" /><path d="M 105.01212808612495 79.60689891045804 l 6.397797319500656 -26.03104414832483 a47.80572830559629,47.80572830559629 0 0,0 0.7974248426375752,0.2032813477930849 l -6.844931050823257 25.917059804362875" fill="#edff1a" stroke="none" /><path d="M 105.71112130821622 79.79150937346287 l 7.854952193676786 -27.794319050700324 a49.88294385025652,49.88294385025652 0 0,0 0.8242794992758107,0.24062978907073657 l -8.332221910676024 27.654990932710884" fill="#d1ff1d" stroke="none" /><path d="M 106.0581310904928 79.89281104454417 l 8.392241902997577 -27.85419978255047 a50.09099808677356,50.09099808677356 0 0,0 0.82343548738446,0.25584541420891677 l -8.870462763092757 27.70561423345903" fill="#ceff1d" stroke="none" /><path d="M 106.74666289553966 80.11325718540242 l 10.104496649062451 -29.78443257683987 a52.45176110260337,52.45176110260337 0 0,0 0.8525109515663104,0.2974243315101526 l -10.615689604692035 29.60608739215751" fill="#afff20" stroke="none" /><path d="M 107.08798089147638 80.2323363322302 l 13.927402637299295 -38.84212095306548 a62.263578424005104,62.263578424005104 0 0,0 1.0057574410508476,0.37042895347522975 l -14.59394240412272 38.59662873178392" fill="#39ff2e" stroke="none" /><path d="M 107.4271985657038 80.35727306442388 l 14.58525354029114 -38.5736492761905 a62.23901113408428,62.23901113408428 0 0,0 0.9988378355218842,0.38753356230566727 l -15.24707454081269 38.31687300999429" fill="#39ff2e" stroke="none" /><path d="M 108.09893153111575 80.62456947434976 l 11.197521853363199 -26.788324595133346 a50.034442138101646,50.034442138101646 0 0,0 0.7917741805900878,0.3389963831203586 l -11.656979791743602 26.591608684050197" fill="#cfff1d" stroke="none" /><path d="M 108.43124777332544 80.76684994638697 l 11.706913617885782 -26.705516470508805 a50.15881404332585,50.15881404332585 0 0,0 0.7877749422851641,0.35345165351495855 l -12.164870678637726 26.500044486477314" fill="#cdff1d" stroke="none" /><path d="M 109.08828744355905 81.06846463323043 l 11.386007456424045 -23.717846094355117 a47.30926432177951,47.30926432177951 0 0,0 0.7311055051912232,0.358750296240985 l -11.7925842286257 23.5183406379793" fill="#f4ff19" stroke="none" /><path d="M 109.41281617654863 81.2277094730956 l 21.248032818060988 -42.37565439550466 a68.40437726713273,68.40437726713273 0 0,0 1.048018618510576,0.5368358416651019 l -21.97431192416032 42.00362602852706" fill="#37ff76" stroke="none" /><path d="M 109.73455568895987 81.39251694778311 l 14.633803459122632 -27.97233469668427 a52.56896754826734,52.56896754826734 0 0,0 0.7981845572217858,0.4263625475861359 l -15.113133062872729 27.716293422596383" fill="#aeff20" stroke="none" /><path d="M 110.36928655335952 81.73862282372117 l 14.359116391894695 -25.287876750355775 a50.08024989743319,50.08024989743319 0 0,0 0.7459650384223814,0.4321110989658179 l -14.792278162782404 25.036961493999907" fill="#ceff1d" stroke="none" /><line stroke="#e1ed5e" stroke-width="0.3" x1="143.23703022742887" x2="145.7803849466894" y1="26.818313649435467" y2="22.513508569990506" /><path d="M 143.74570117128098 25.957352633546478 a86.0,86.0 0 0,1 28.547481713284135,27.462654790039114" fill="none" id="id86" stroke="none" /><text fill="#e1ed5e" style="font-size:6.75px; font-family:Arial;" text-anchor="middle"><textPath startOffset="19.985693538727396" xlink:href="#id86">February</textPath></text><path d="M 110.68208982089419 81.91981866633111 l 15.466707635756189 -26.178480370230066 a51.406115825348024,51.406115825348024 0 0,0 0.7579658803779794,0.4566659619896173 l -15.915035582351805 25.908367798781835" fill="#bdff1f" stroke="none" /><path d="M 111.2981086023043 82.29822771554956 l 17.817647932415646 -27.91652633608099 a54.117986359629704,54.117986359629704 0 0,0 0.7809302078630641,0.5079387301810954 l -18.29554516606299 27.605688681740368" fill="#9aff23" stroke="none" /><path d="M 111.60114157652 82.49532879139004 l 19.07253292025061 -28.778065993098924 a55.524463707597256,55.524463707597256 0 0,0 0.7921366034471655,0.5348541706691305 l -19.565074218104314 28.445499910131126" fill="#88ff25" stroke="none" /><path d="M 111.90073688211348 82.69761687909136 l 18.902313474367894 -27.481917535424476 a54.354958343657714,54.354958343657714 0 0,0 0.7663243130849935,0.5368591538766426 l -19.37256892703654 27.152473538783894" fill="#97ff23" stroke="none" /><path d="M 112.48926042617603 83.11751280151076 l 19.63557626969304 -26.54259369219912 a54.016134470166264,54.016134470166264 0 0,0 0.7427317422554714,0.5594101498229711 l -20.089554165706893 26.200666952870296" fill="#9bff22" stroke="none" /><path d="M 112.77801427241765 83.33499621200491 l 17.58192187268249 -22.930229092086492 a49.894971585946934,49.894971585946934 0 0,0 0.677068693487625,0.528462854752746 l -17.974023121329544 22.62418784811052" fill="#d1ff1d" stroke="none" /><path d="M 113.34407831869373 83.78471172551755 l 21.61809960773311 -26.269608789300307 a55.021090173490244,55.021090173490244 0 0,0 0.7261276404702662,0.6081110165808278 l -22.067084785162496 25.89359661532566" fill="#8fff24" stroke="none" /><path d="M 113.6212207817346 84.01681056812373 l 29.639729058483923 -34.77936462835218 a66.69592698055496,66.69592698055496 0 0,0 0.8673843458758169,0.7521871573962314 l -30.234007203006506 34.26401247753627" fill="#34ff60" stroke="none" /><path d="M 113.89432698308785 84.25364557470407 l 20.229489001564744 -22.9259541717272 a51.57501594355373,51.57501594355373 0 0,0 0.660624409684647,0.5931151177670245 l -20.62112439884538 22.574340045190876" fill="#baff1f" stroke="none" /><path d="M 114.42810811169701 84.74124197986012 l 21.111088276164203 -22.326488341645316 a51.72702604993887,51.72702604993887 0 0,0 0.6417027163859952,0.6173175047429256 l -21.492274236162622 21.959787750140084" fill="#b9ff1f" stroke="none" /><path d="M 114.68862486808459 84.99185889309781 l 26.033629192818584 -26.599929126077484 a58.21970013932838,58.21970013932838 0 0,0 0.7101810905090291,0.707131347211576 l -26.487646083494933 26.14786192821579" fill="#68ff28" stroke="none" /><path d="M 115.19652480421416 85.50635884689758 l 20.967637524004825 -19.99782305603033 a49.97507118745963,49.97507118745963 0 0,0 0.5883557468758287,0.6276168888490159 l -21.308760592851115 19.633936750303256" fill="#d0ff1d" stroke="none" /><path d="M 115.4437574822437 85.77008943001952 l 39.99627111913304 -36.852648185671306 a75.38583806223876,75.38583806223876 0 0,0 0.871088238728188,0.9618773899107711 l -40.62470299847726 36.15871800849099" fill="#41ffcd" stroke="none" /><path d="M 115.68641384162765 86.03803664274999 l 21.589663119019484 -19.216252255387687 a49.9029047733172,49.9029047733172 0 0,0 0.5655855889118729,0.6465620994812035 l -21.917240571509204 18.841774599703534" fill="#d1ff1d" stroke="none" /><path d="M 116.15771136456269 86.58626213691792 l 22.53899036306775 -18.71132003829469 a50.29367822862041,50.29367822862041 0 0,0 0.54724672925065,0.6708597828796603 l -22.857735584394806 18.320576085806927" fill="#cbff1d" stroke="none" /><path d="M 116.38621287248628 86.86637796730983 l 26.78154468758744 -21.46552642245795 a55.32229538429042,55.32229538429042 0 0,0 0.5891716959462824,0.7481882225292951 l -27.14707046412769 21.001345805975614" fill="#8bff24" stroke="none" /><path d="M 116.82858285166822 87.43820079747576 l 23.446513411035923 -17.501794183431695 a50.258362749359215,50.258362749359215 0 0,0 0.5115281501614531,0.697723821953319 l -23.744304173711 17.09560791780688" fill="#ccff1d" stroke="none" /><path d="M 117.04232023915458 87.72973835380427 l 46.19621341627469 -33.26070732897504 a77.92420211145459,77.92420211145459 0 0,0 0.7743713139291521,1.095293306956701 l -46.76189735000773 32.46058752168654" fill="#44ffea" stroke="none" /><path d="M 117.2510076193507 88.02491185347247 l 24.82213563989301 -17.230718856060033 a51.2164870562716,51.2164870562716 0 0,0 0.496496367573852,0.7285471549807245 l -25.115056473135596 16.800893677808904" fill="#bfff1e" stroke="none" /><path d="M 117.65298651832404 88.62581576622439 l 24.558332376566906 -15.823441355683304 a50.21460226418773,50.21460226418773 0 0,0 0.4619083534726867,0.7306280876627671 l -24.82706832628555 15.39836562030633" fill="#ccff1d" stroke="none" /><line stroke="#e1ed5e" stroke-width="0.3" x1="172.23445277983987" x2="176.4835382374775" y1="55.19839476539836" y2="52.563006222186495" /><path d="M 173.08426987136738 54.67131705675599 a86.0,86.0 0 0,1 12.851231095245387,41.99856678651699" fill="none" id="id87" stroke="none" /><text fill="#e1ed5e" style="font-size:6.75px; font-family:Arial;" text-anchor="middle"><textPath startOffset="22.20632615414155" xlink:href="#id87">March</textPath></text><path d="M 117.84615892207809 88.93136811851018 l 24.879262583453638 -15.430737797503895 a50.276020488989815,50.276020488989815 0 0,0 0.44981285594853815,0.7393740648524344 l -25.1411912376884 15.000195959444378" fill="#ccff1d" stroke="none" /><path d="M 118.21658344932153 89.55222093294921 l 25.08111001078102 -14.384799261510024 a49.91339705338754,49.91339705338754 0 0,0 0.42103699453068544,0.74897783269974 l -25.32500464660414 13.950937918875491" fill="#d0ff1d" stroke="none" /><path d="M 118.3937258080291 89.86733742301442 l 26.615429327755297 -14.661801939117181 a51.386666720827364,51.386666720827364 0 0,0 0.4201273563869575,0.778432185097727 l -26.86386478336072 14.201488770686995" fill="#bdff1f" stroke="none" /><path d="M 118.56541770881063 90.18545643968196 l 41.88355701207683 -22.141596876703233 a68.37597133816176,68.37597133816176 0 0,0 0.5411162588055591,1.045264378166417 l -42.25848270404251 21.41735977627647" fill="#37ff76" stroke="none" /><path d="M 118.89224826269711 90.83032412892265 l 26.483113264076938 -12.854032051235908 a50.437755147635286,50.437755147635286 0 0,0 0.37237907888841115,0.78432530864408 l -26.700450536807104 12.396264326951288" fill="#c9ff1d" stroke="none" /><path d="M 119.04729006885535 91.15688171328212 l 27.074617084075097 -12.569979276661325 a50.85028089088922,50.85028089088922 0 0,0 0.36175781651723055,0.7970853958799884 l -27.286977217555677 12.102071871939273" fill="#c4ff1e" stroke="none" /><path d="M 119.34039704204932 91.81776055985345 l 42.393855552686304 -17.935344148772977 a67.0316799428063,67.0316799428063 0 0,0 0.4404246725567967,1.066523278767946 l -42.6963019121293 17.202946299551726" fill="#35ff64" stroke="none" /><path d="M 119.47837535516314 92.15188598940014 l 38.60837578826167 -15.555862818407158 a62.6244104947173,62.6244104947173 0 0,0 0.39425480963132187,1.0033354870839295 l -38.87042414777469 14.888978326427443" fill="#35ff2f" stroke="none" /><path d="M 119.61058180528143 92.48833698450437 l 30.97890572384267 -11.86620074288895 a54.173774580491596,54.173774580491596 0 0,0 0.32606269192959186,0.8736859062000448 l -31.178573004273886 11.331191699659572" fill="#99ff23" stroke="none" /><path d="M 119.85752413597 93.16781622104841 l 27.704352071298725 -9.53196498877854 a50.29828459548057,50.29828459548057 0 0,0 0.2746351157312139,0.8211240398189988 l -27.86432448080171 9.053667846037229" fill="#cbff1d" stroke="none" /><path d="M 119.97218684219823 93.5106431181261 l 28.669926112702743 -9.315423683559246 a51.145344279209205,51.145344279209205 0 0,0 0.26484646291195946,0.8396356632533747 l -28.826028059382907 8.82053785387945" fill="#c0ff1e" stroke="none" /><path d="M 120.18372546131832 94.20196356495316 l 43.61816698446029 -12.529883142264056 a66.38218221552435,66.38218221552435 0 0,0 0.30603206843509767,1.100960177145267 l -43.82738582346175 11.777211661699837" fill="#34ff5c" stroke="none" /><path d="M 120.28053869075195 94.5502522615342 l 45.01836216953314 -12.0972485575407 a67.61540898769604,67.61540898769604 0 0,0 0.29236795991297637,1.1266130139414872 l -45.21992646131642 11.320539118050363" fill="#36ff6c" stroke="none" /><path d="M 120.37134235888165 94.90015583598534 l 41.21741831260979 -10.31853505449865 a63.48938382734654,63.48938382734654 0 0,0 0.25627701334334213,1.0624336718940015 l -41.38892812621395 9.60751615094524" fill="#30ff34" stroke="none" /><path d="M 120.53481517161879 95.60439243477599 l 29.29364817293016 -6.270491379922749 a50.95725096575285,50.95725096575285 0 0,0 0.1762167353985322,0.859295383903029 l -29.397244204243687 5.765320339856309" fill="#c3ff1e" stroke="none" /><path d="M 120.6074358757038 95.95851677861258 l 28.7360309669013 -5.63564471108829 a50.28344185782006,50.28344185782006 0 0,0 0.15926508259493244,0.8508004396533351 l -28.828781773406092 5.140166193972392" fill="#cbff1d" stroke="none" /><path d="M 120.73433829027371 96.67025291283417 l 45.16105491456022 -7.252456719375146 a66.73968746572645,66.73968746572645 0 0,0 0.1723921294627946,1.1358487399488393 l -45.27920293746231 6.4740088670342235" fill="#34ff60" stroke="none" /><path d="M 120.78858239683441 97.02765380044208 l 47.71094546544635 -6.821698792368303 a69.1961605485395,69.1961605485395 0 0,0 0.15843944042905195,1.1805578630519244 l -47.82130090493324 5.999422587251714" fill="#38ff80" stroke="none" /><path d="M 120.83666639777658 97.38593545837742 l 40.30860355569408 -5.05691693986641 a61.6245729767935,61.6245729767935 0 0,0 0.12298400475057093,1.0536518476368941 l -40.38967791344823 4.3623213539046635" fill="#40ff2d" stroke="none" /><path d="M 120.91429891909075 98.10471618934814 l 29.57324905346103 -2.679970310084723 a50.69443214545396,50.69443214545396 0 0,0 0.07127520364629174,0.8697380179553409 l -29.61499874092682 2.1705183749216133" fill="#c6ff1e" stroke="none" /><path d="M 120.94382443527127 98.46500227214037 l 29.065755173981717 -2.1302636626121263 a50.143715396395336,50.143715396395336 0 0,0 0.05568199085174904,0.8613757530440541 l -29.09811775583788 1.629628845315037" fill="#cdff1d" stroke="none" /><path d="M 120.98425023603335 99.18683210126433 l 46.14802993138088 -1.7882981811593792 a67.18266641211142,67.18266641211142 0 0,0 0.034833590437121,1.155957283346842 l -46.17197521627365 0.9936707503875382" fill="#35ff66" stroke="none" /><line stroke="#e1ed5e" stroke-width="0.3" x1="184.98032266829074" x2="189.97916517819016" y1="98.17113171792111" y2="98.06355123074" /><path d="M 185.9800911702706 98.14961562048488 a86.0,86.0 0 0,1 -9.607161424134198,41.387399972396054" fill="none" id="id88" stroke="none" /><text fill="#e1ed5e" style="font-size:6.75px; font-family:Arial;" text-anchor="middle"><textPath startOffset="21.466115282336823" xlink:href="#id88">April</textPath></text><path d="M 120.99513854157772 99.54816195383933 l 42.5555350772881 -0.9158410545643711 a63.56538888053912,63.56538888053912 0 0,0 0.01412662940310091,1.0941230153619776 l -42.564994713808915 0.1831817811419309" fill="#30ff35" stroke="none" /><path d="M 120.99980553446 99.90962569577887 l 37.0947288146784 -0.1596400643518755 a58.09507232483417,58.09507232483417 0 0,0 -0.004303745784869667,1.0000389527856657 l -37.09198077160402 -0.4789083666374749" fill="#69ff28" stroke="none" /><path d="M 120.9904718944345 100.63252640178507 l 34.42208541074313 1.0372743374372952 a55.43771046506433,55.43771046506433 0 0,0 -0.0369528431487349,0.953588685401475 l -34.39913043474319 -1.6296402698527765" fill="#89ff24" stroke="none" /><path d="M 120.9764740272857 100.99374915477107 l 37.15295247660607 1.7601011053073647 a58.19462103086753,58.19462103086753 0 0,0 -0.056015507131007815,1.0001945089134046 l -37.11715061858753 -2.3993673305561924" fill="#68ff28" stroke="none" /><path d="M 120.92983693683757 101.71520430193887 l 34.580000431302594 2.833837916645519 a55.69592291850305,55.69592291850305 0 0,0 -0.08652866528271688,0.9548366110773951 l -34.5260971697428 -3.428655916271485" fill="#86ff25" stroke="none" /><path d="M 120.89721153311464 102.0752229133903 l 33.73258697435178 3.3498554247860635 a54.89850963315609,54.89850963315609 0 0,0 -0.10147779976102152,0.9395583945333107 l -33.66992687308971 -3.930010141204165" fill="#90ff24" stroke="none" /><path d="M 120.8583938346157 102.4346265915055 l 62.575181503847105 7.303879774516527 a84.0,84.0 0 0,0 -0.1799939630126075,1.434728982850419 l -62.44018603158764 -8.379926511654341" fill="#4dd2ff" stroke="none" /><path d="M 120.81339534386255 102.79330883721812 l 8.753460666428982 1.1747780038679454 a29.831940726538605,29.831940726538605 0 0,0 -0.07268474082332936,0.5083569080287561 l -8.731941874589053 -1.3252803838771108" fill="#ff0000" stroke="none" /><path d="M 120.76222939487914 103.15116336523771 l 29.517617025931038 4.480002201698631 a50.85565498555941,50.85565498555941 0 0,0 -0.13880747259903536,0.864354264376308 l -29.436127798970713 -4.987435695768143" fill="#c4ff1e" stroke="none" /><path d="M 120.70491114924044 103.5080841355445 l 32.51106963659173 5.508430671333448 a53.97442125915485,53.97442125915485 0 0,0 -0.1630890024560334,0.9146897364837889 l -32.4114341917965 -6.067239158550455" fill="#9cff22" stroke="none" /><path d="M 120.5718875245553 104.21870165774334 l 41.76031079377069 8.563837040391643 a63.62936619804128,63.62936619804128 0 0,0 -0.22926557898710578,1.0710524585864538 l -41.60671117605914 -9.281403318394265" fill="#30ff36" stroke="none" /><path d="M 120.49622156327973 104.57218783832717 l 45.44942489585546 10.138615409002359 a67.5665303171244,67.5665303171244 0 0,0 -0.2629928547694235,1.132966335184188 l -45.268171475155484 -10.91945040153511" fill="#36ff6b" stroke="none" /><path d="M 120.41448212921028 104.9243191809786 l 44.058632004860605 10.627688975699021 a66.32229944634233,66.32229944634233 0 0,0 -0.2772546429201812,1.1074944782372247 l -43.869166047645365 -11.384511293333642" fill="#34ff5b" stroke="none" /><path d="M 120.23288151984713 105.62410040840565 l 29.01949528486903 8.066500815677744 a51.11975335220834,51.11975335220834 0 0,0 -0.24295846595794737,0.8457702931559226 l -28.876344182024983 -8.56482858433825" fill="#c0ff1e" stroke="none" /><path d="M 120.13307415673323 105.97154293290107 l 23.128897443296577 6.860115002711632 a45.124822792985654,45.124822792985654 0 0,0 -0.2272856260429962,0.7427825765668232 l -23.007385044747448 -7.257224551830513" fill="#ffec16" stroke="none" /><path d="M 119.9155931802556 106.66101706037122 l 43.60613781724535 14.584613438756845 a66.98049808880458,66.98049808880458 0 0,0 -0.37512003443965836,1.0902744098775405 l -43.348626951862464 -15.333060551723687" fill="#35ff63" stroke="none" /><path d="M 119.79798401119884 107.00284435728193 l 45.353749749118215 16.04230260679743 a69.10736003184648,69.10736003184648 0 0,0 -0.4063372547576239,1.118065610186208 l -45.07088823335537 -16.82061601398977" fill="#38ff7f" stroke="none" /><path d="M 119.67450827220406 107.3425965602758 l 34.77454012668016 12.977982228916465 a58.11733643132492,58.11733643132492 0 0,0 -0.3578525740647145,0.9342401494116563 l -34.54599327302194 -13.574645945161267" fill="#69ff28" stroke="none" /><path d="M 119.41010516605496 108.01547362559984 l 28.169847364087598 11.632841071819353 a51.47725860241042,51.47725860241042 0 0,0 -0.3452629221456801,0.816099558933955 l -27.96543346074961 -12.116015156419472" fill="#bcff1f" stroke="none" /><path d="M 119.26925614724726 108.34839909993367 l 30.25467566278202 13.107828612680354 a53.97211807572477,53.97211807572477 0 0,0 -0.3766711942825658,0.8492941048160157 l -30.02456338376818 -13.626671053989057" fill="#9cff22" stroke="none" /><path d="M 118.97047184881838 109.00673069616215 l 41.50346023645462 19.704859862613535 a66.94364715392334,66.94364715392334 0 0,0 -0.5031826996943145,1.0367053991628392 l -41.15812428014559 -20.416354217741652" fill="#35ff63" stroke="none" /><path d="M 118.81262510543309 109.33194174019688 l 17.370772929638402 8.616715639262873 a40.39050129782559,40.39050129782559 0 0,0 -0.3143175928614281,0.6201784300333676 l -17.219876666990704 -8.914448280998934" fill="#ffa70f" stroke="none" /><path d="M 118.64920377521936 109.65438752849418 l 52.58322318008614 27.221473913670003 a80.2115191667919,80.2115191667919 0 0,0 -0.6453111892714479,1.220685578230354 l -52.1068594825898 -28.12257450698649" fill="#48faff" stroke="none" /><line stroke="#e1ed5e" stroke-width="0.3" x1="174.80103733775053" x2="179.2010983576182" y1="140.37084112569926" y2="142.7455964860345" /><path d="M 175.68104954172406 140.8457921977663 a86.0,86.0 0 0,1 -30.038265399797805,32.042727171017184" fill="none" id="id89" stroke="none" /><text fill="#e1ed5e" style="font-size:6.75px; font-family:Arial;" text-anchor="middle"><textPath startOffset="22.206326154141568" xlink:href="#id89">May</textPath></text><path d="M 118.30583269289576 110.29060199501023 l 26.287925585600302 14.777725985709669 a51.156860196359595,51.156860196359595 0 0,0 -0.43811710425843153,0.7638941002751908 l -26.02965648518949 -15.228039931843176" fill="#c0ff1e" stroke="none" /><path d="M 118.12598468904814 110.60418214915192 l 28.473760870795825 16.65790586967387 a53.98849626900533,53.98849626900533 0 0,0 -0.47617628577688426,0.7980988445708521 l -28.182803709320712 -17.145566808130827" fill="#9cff22" stroke="none" /><path d="M 117.75023020441432 111.22182372390056 l 38.83642013304636 24.552665277096242 a66.94671806516344,66.94671806516344 0 0,0 -0.624182943334608,0.9687457893405368 l -38.408032326334705 -25.217532666358235" fill="#35ff63" stroke="none" /><path d="M 117.55443506779139 111.5257021239791 l 37.89440781512832 24.880302610427762 a66.33227990787267,66.33227990787267 0 0,0 -0.6348848701194871,0.9490667385182657 l -37.460519839598106 -25.528906263151832" fill="#34ff5b" stroke="none" /><path d="M 117.35343817320211 111.8261652097733 l 22.01695307753145 15.004296088875172 a47.6434818284108,47.6434818284108 0 0,0 -0.46767543446408283,0.6737213442276501 l -21.75541673590523 -15.38105869528984" fill="#efff19" stroke="none" /><path d="M 116.93607887273984 112.41649034213513 l 24.286023810024925 17.80501746312755 a51.113611529728125,51.113611529728125 0 0,0 -0.5263210767536984,0.7050930924726866 l -23.97594146657614 -18.220423435109556" fill="#c1ff1e" stroke="none" /><path d="M 116.71984013943494 112.70617746262582 l 26.365935716768945 20.03669026687075 a54.115427266929615,54.115427266929615 0 0,0 -0.5699982664179184,0.7367995958847093 l -26.017130633132957 -20.48756785686871" fill="#9aff23" stroke="none" /><path d="M 116.27256486870786 113.27417163493432 l 35.74992228880852 29.162618691400592 a67.13583501569984,67.13583501569984 0 0,0 -0.7381872788386766,0.8891941311373438 l -35.2426390100763 -29.773674079651702" fill="#35ff66" stroke="none" /><line stroke="#e1ed5e" stroke-width="0.3" x1="143.8653032363475" x2="146.44561519142675" y1="172.8068346515853" y2="177.08958963109032" /><path d="M 144.38136562736335 173.6633856474863 a86.0,86.0 0 0,1 -40.68145358897372,12.25698825130547" fill="none" id="id90" stroke="none" /><text fill="#e1ed5e" style="font-size:6.75px; font-family:Arial;" text-anchor="middle"><textPath startOffset="21.466115282336833" xlink:href="#id90">June</textPath></text><line stroke="#e1ed5e" stroke-width="0.3" x1="102.19456741930631" x2="102.32365962044197" y1="184.97166512339345" y2="189.96999836594603" /><path d="M 102.22038585953345 185.97133177190398 a86.0,86.0 0 0,1 -42.740103519485714,-10.115201625700543" fill="none" id="id91" stroke="none" /><text fill="#e1ed5e" style="font-size:6.75px; font-family:Arial;" text-anchor="middle"><textPath startOffset="22.20632615414155" xlink:href="#id91">July</textPath></text><line stroke="#e1ed5e" stroke-width="0.3" x1="58.666819895761336" x2="56.23545636021788" y1="174.27360380694188" y2="178.64263932499728" /><path d="M 58.180547188652646 175.14741091055294 a86.0,86.0 0 0,1 -31.652253787137756,-30.449443065178592" fill="none" id="id92" stroke="none" /><text fill="#e1ed5e" style="font-size:6.75px; font-family:Arial;" text-anchor="middle"><textPath startOffset="22.20632615414155" xlink:href="#id92">August</textPath></text><line stroke="#e1ed5e" stroke-width="0.3" x1="26.63291911575756" x2="22.317208475507996" y1="142.92168965132927" y2="145.44649492493687" /><path d="M 25.769776987707644 143.4266507060508 a86.0,86.0 0 0,1 -11.730757126820373,-40.83630448921669" fill="none" id="id93" stroke="none" /><text fill="#e1ed5e" style="font-size:6.75px; font-family:Arial;" text-anchor="middle"><textPath startOffset="21.46611528233685" xlink:href="#id93">September</textPath></text><line stroke="#e1ed5e" stroke-width="0.3" x1="15.007084014347285" x2="10.007500721073583" y1="101.09737516637583" y2="101.16192664675087" /><path d="M 14.007167355692545 101.11028546245083 a86.0,86.0 0 0,1 10.666146001902526,-42.60595125391555" fill="none" id="id94" stroke="none" /><text fill="#e1ed5e" style="font-size:6.75px; font-family:Arial;" text-anchor="middle"><textPath startOffset="22.20632615414155" xlink:href="#id94">October</textPath></text><line stroke="#e1ed5e" stroke-width="0.3" x1="26.266209847984243" x2="21.928928074336255" y1="57.71137044288968" y2="55.22380399835378" /><path d="M 25.398753493254645 57.2138571539825 a86.0,86.0 0 0,1 29.58750427330803,-30.4925239686951" fill="none" id="id95" stroke="none" /><text fill="#e1ed5e" style="font-size:6.75px; font-family:Arial;" text-anchor="middle"><textPath startOffset="21.46611528233685" xlink:href="#id95">November</textPath></text><line stroke="#e1ed5e" stroke-width="0.3" x1="56.76296977257108" x2="54.21961505331056" y1="26.818313649435495" y2="22.513508569990535" /><path d="M 56.25429882871898 25.957352633546506 a86.0,86.0 0 0,1 42.26535254187918,-11.944610805530505" fill="none" id="id96" stroke="none" /><text fill="#e1ed5e" style="font-size:6.75px; font-family:Arial;" text-anchor="middle"><textPath startOffset="22.20632615414155" xlink:href="#id96">December</textPath></text></svg>