<?xml version="1.0" encoding="utf-8" ?>
<svg baseProfile="full" height="200mm" version="1.1" viewBox="0,0,200,200" width="200mm" xmlns="http://www.w3.org/2000/svg" xmlns:ev="http://www.w3.org/2001/xml-events" xmlns:xlink="http://www.w3.org/1999/xlink"><defs /><rect fill="#1a1a1a" height="200" width="200" x="0" y="0" /><text alignment-baseline="middle" fill="#e1ed5e" style="dominant-baseline: central; font-size:9.0px; font-family:Arial;" text-anchor="middle" x="100.0" y="100.0">2023</text><line stroke="#e1ed5e" stroke-width="0.3" x1="100.0" x2="100.0" y1="15.0" y2="10.0" /><path d="M 100.0 14.0 a86.0,86.0 0 0,1 42.46469731375804,11.215312516191453" fill="none" id="id85" stroke="none" /><text fill="#e1ed5e" style="font-size:6.75px; font-family:Arial;" text-anchor="middle"><textPath startOffset="22.20632615414155" xlink:href="#id85">January</textPath></text><path d="M 100.0 79.0 l 0.0 -27.1367182981391 a48.1367182981391,48.1367182981391 0 0,0 0.8285944762389528,0.007131974253600843 l -0.4671139969664244 27.13269770049406" fill="#e1ff1b" stroke="none" /><path d="M 100.36148047927253 79.00311137660856 l 0.5268578423777616 -30.602967714962016 a51.60750254674632,51.60750254674632 0 0,0 0.8880750878336736,0.022936359442023213 l -1.053559565406303 30.589364563377632" fill="#b4ff20" stroke="none" /><path d="M 101.08401301168833 79.027996857942 l 1.2162882524453005 -23.531083830998355 a44.56249696815914,44.56249696815914 0 0,0 0.7657066716467404,0.04618951748794933 l -1.6211569729316528 23.5066610441301" fill="#ffed16" stroke="none" /><path d="M 101.80526077348638 79.07773832637324 l 2.4400313347646176 -28.27900258376682 a49.38407546578404,49.38407546578404 0 0,0 0.8462898991435629,0.08036542326973888 l -2.926446360998425 28.232811615981905" fill="#d0ff1d" stroke="none" /><path d="M 102.16513564639614 79.11191278185805 l 3.552285117726438 -34.27057398749316 a55.45418655243312,55.45418655243312 0 0,0 0.9486185828293912,0.10658835077392347 l -4.141670404065555 34.20434968324863" fill="#84ff25" stroke="none" /><path d="M 102.52436894288641 79.15227682838746 l 1.8225655714017228 -15.051818238283857 a36.161760370761485,36.161760370761485 0 0,0 0.6173075468641258,0.08014423642818615 l -2.0813878467736946 15.018215678691535" fill="#ff720a" stroke="none" /><path d="M 103.2404852339499 79.25152402106235 l 3.570750182118948 -22.86312667136429 a44.14028560873767,44.14028560873767 0 0,0 0.7496928909202499,0.12370575061840554 l -3.9637722791780727 22.79827465780626" fill="#ffe715" stroke="none" /><path d="M 103.59715602781102 79.31037775812273 l 4.562803878270389 -26.24370137834516 a47.63739929623977,47.63739929623977 0 0,0 0.8066710289386714,0.14741397442708612 l -5.013870028311961 26.161271922567337" fill="#e7ff1a" stroke="none" /><path d="M 104.307194497241 79.44645832069477 l 5.892291060538002 -28.11747878507493 a49.72823884562426,49.72823884562426 0 0,0 0.8362804458744477,0.18277851439746579 l -6.375414230565977 28.011886772581594" fill="#ccff1d" stroke="none" /><path d="M 104.66035177308747 79.52364482259891 l 8.011473527074674 -35.20029933835815 a57.10048173619066,57.10048173619066 0 0,0 0.9565046160867086,0.22637373920302584 l -8.616201830123908 35.057179687014255" fill="#70ff27" stroke="none" /><path d="M 105.01212808612495 79.60689891045804 l 5.877167129665736 -23.912729550387347 a45.62437264216069,45.62437264216069 0 0,0 0.7610386759938574,0.19400570374381065 l -6.287914694344619 23.80802085047467" fill="#fffb17" stroke="none" /><path d="M 105.71112130821622 79.79150937346287 l 7.215743877515663 -25.53251535779624 a47.532551709211944,47.532551709211944 0 0,0 0.7854409723649323,0.22929175804291935 l -7.654175067604021 25.40452527083462" fill="#e9ff1a" stroke="none" /><path d="M 106.0581310904928 79.89281104454417 l 7.709310844556479 -25.58752320680347 a47.723675225475674,47.723675225475674 0 0,0 0.7845195598017769,0.24375404607594833 l -8.148615777068974 25.451029025845003" fill="#e6ff1a" stroke="none" /><path d="M 106.74666289553966 80.11325718540242 l 9.282228336099033 -27.360680461507812 a49.89232767016557,49.89232767016557 0 0,0 0.8109118710952091,0.282911229153142 l -9.751822211257515 27.196848379182462" fill="#caff1d" stroke="none" /><path d="M 107.08798089147638 80.2323363322302 l 12.794039713021718 -35.68128609139409 a58.90569389042087,58.90569389042087 0 0,0 0.9515167847743391,0.3504516620128632 l -13.406338823568634 35.4557711615749" fill="#5bff2a" stroke="none" /><path d="M 107.4271985657038 80.35727306442388 l 13.398357028842273 -35.43466169306148 a58.88312579993955,58.88312579993955 0 0,0 0.9449811758105751,0.36663801505108945 l -14.006321369652516 35.19878097411984" fill="#5bff2a" stroke="none" /><path d="M 108.09893153111575 80.62456947434976 l 10.286307002835208 -24.608385184296818 a47.67172160051345,47.67172160051345 0 0,0 0.7543851134261376,0.3229883358165464 l -10.708375874051661 24.427677320517482" fill="#e7ff1a" stroke="none" /><path d="M 108.43124777332544 80.76684994638697 l 10.754246261468715 -24.53231569290653 a47.78597255857517,47.78597255857517 0 0,0 0.7505080112511351,0.33673106786495527 l -11.17493639118663 24.343564294525045" fill="#e5ff1a" stroke="none" /><path d="M 109.08828744355905 81.06846463323043 l 10.459454312042386 -21.787771398656048 a45.168309147017226,45.168309147017226 0 0,0 0.6980197208934583,0.34251524557605534 l -10.832945299946276 21.60450099294516" fill="#fff517" stroke="none" /><path d="M 109.41281617654863 81.2277094730956 l 19.518942819231654 -38.92727304008646 a64.54677617364892,64.54677617364892 0 0,0 0.9889165854203588,0.5065614847808733 l -20.186119892240768 38.585519029993094" fill="#32ff47" stroke="none" /><path d="M 109.73455568895987 81.39251694778311 l 13.442956126446484 -25.696044718120625 a49.99999626850355,49.99999626850355 0 0,0 0.7591784039894436,0.4055268113980508 l -13.88327957696424 25.46083918022082" fill="#c8ff1d" stroke="none" /><path d="M 110.36928655335952 81.73862282372117 l 13.190622124314906 -23.23003849515963 a47.71380168589009,47.71380168589009 0 0,0 0.7107158606594165,0.4116925000285205 l -13.58853471743965 22.99954183774106" fill="#e6ff1a" stroke="none" /><line stroke="#e1ed5e" stroke-width="0.3" x1="143.23703022742887" x2="145.7803849466894" y1="26.81831364943548" y2="22.513508569990506" /><path d="M 143.74570117128098 25.957352633546492 a86.0,86.0 0 0,1 28.547481713284135,27.462654790039103" fill="none" id="id86" stroke="none" /><text fill="#e1ed5e" style="font-size:6.75px; font-family:Arial;" text-anchor="middle"><textPath startOffset="19.985693538727396" xlink:href="#id86">February</textPath></text><path d="M 110.68208982089419 81.91981866633111 l 14.2080814976663 -24.048167932353962 a48.931773319054145,48.931773319054145 0 0,0 0.72148253270566,0.4346851532320024 l -14.619926096589596 23.800036169663347" fill="#d6ff1c" stroke="none" /><path d="M 111.2981086023043 82.29822771554956 l 16.36771056144101 -25.644777845145708 a51.42296139020631,51.42296139020631 0 0,0 0.7420406158597308,0.48264385775774843 l -16.806718203085023 25.359235063228432" fill="#b6ff1f" stroke="none" /><path d="M 111.60114157652 82.49532879139004 l 17.52047743317903 -26.43620844231325 a52.71498457026221,52.71498457026221 0 0,0 0.7520553291277209,0.5077911153296882 l -17.97293745671329 26.130705414684893" fill="#a6ff21" stroke="none" /><path d="M 111.90073688211348 82.69761687909136 l 17.364109845677856 -25.245535976433107 a51.64064942964077,51.64064942964077 0 0,0 0.7280565822759013,0.5100501629153057 l -17.796097567537405 24.94290097075387" fill="#b3ff20" stroke="none" /><path d="M 112.48926042617603 83.11751280151076 l 18.037702299905224 -24.382650995896363 a51.32939784841915,51.32939784841915 0 0,0 0.7057886216189149,0.5315853572707342 l -18.454737075282523 24.06854904911978" fill="#b7ff1f" stroke="none" /><path d="M 112.77801427241765 83.33499621200491 l 16.151167057374916 -21.06424789121547 a47.54360067017676,47.54360067017676 0 0,0 0.6451608762619365,0.503558297294686 l -16.511360488796285 20.783111204697555" fill="#e9ff1a" stroke="none" /><path d="M 113.34407831869373 83.78471172551755 l 19.858894878264945 -24.13188064196194 a52.252573799670884,52.252573799670884 0 0,0 0.6895908096698229,0.5775124715284595 l -20.271343224893887 23.78646701303966" fill="#abff21" stroke="none" /><path d="M 113.6212207817346 84.01681056812373 l 27.227752405310028 -31.949142552762854 a62.97735354809338,62.97735354809338 0 0,0 0.8190240856571196,0.7102496162844876 l -27.773670289613914 31.475727943058693" fill="#30ff32" stroke="none" /><path d="M 113.89432698308785 84.25364557470405 l 18.58328450755147 -21.0603208488034 a49.08692894111326,49.08692894111326 0 0,0 0.6287545018007556,0.5645019997976204 l -18.943049996948215 20.737319840236484" fill="#d4ff1c" stroke="none" /><path d="M 114.42810811169701 84.74124197986012 l 19.393142341343783 -20.50963743450136 a49.22656900096646,49.22656900096646 0 0,0 0.6106831468676792,0.5874767034430842 l -19.74330873182388 20.172777644295973" fill="#d2ff1c" stroke="none" /><path d="M 114.68862486808459 84.99185889309783 l 23.915104233074015 -24.43532067430708 a55.19089216348432,55.19089216348432 0 0,0 0.673234796624312,0.6703437124542933 l -24.33217482986565 24.020041111202666" fill="#87ff25" stroke="none" /><path d="M 115.19652480421416 85.50635884689758 l 19.261365105646238 -18.370470719904926 a47.61718204851691,47.61718204851691 0 0,0 0.5605963541940397,0.5980051042037654 l -19.57472878181074 18.036196198823102" fill="#e8ff1a" stroke="none" /><path d="M 115.4437574822437 85.77008943001952 l 36.74151558601021 -33.853709603740256 a70.96011030303482,70.96011030303482 0 0,0 0.8199486679818557,0.905407798606843 l -37.3188078946081 33.216249017863866" fill="#3bff99" stroke="none" /><path d="M 115.68641384162765 86.03803664274999 l 19.83277245074736 -17.652501395518453 a47.550888282728025,47.550888282728025 0 0,0 0.5389284907328586,0.6160884281172296 l -20.133692805058065 17.308497411198275" fill="#e9ff1a" stroke="none" /><path d="M 116.15771136456269 86.58626213691792 l 20.704846790615964 -17.188658782067268 a47.90986197194661,47.90986197194661 0 0,0 0.5213083669048055,0.639062417630142 l -20.99765364959718 16.82971219482902" fill="#e4ff1a" stroke="none" /><path d="M 116.38621287248628 86.86637796730983 l 24.602157001723814 -19.718737560896603 a52.529267992342966,52.529267992342966 0 0,0 0.5594264969463618,0.7104148404716482 l -24.93793757926414 19.292330326471916" fill="#a8ff21" stroke="none" /><path d="M 116.82858285166822 87.43820079747576 l 21.538518812496907 -16.07755987697778 a47.877420341879706,47.877420341879706 0 0,0 0.4872949877838252,0.6646698157040103 l -21.812076412794358 15.704427617602274" fill="#e4ff1a" stroke="none" /><path d="M 117.04232023915458 87.72973835380427 l 42.43692843748034 -30.554068230242297 a73.29191123516264,73.29191123516264 0 0,0 0.7283379497729658,1.0301823779359298 l -42.956579007057194 29.819059351974577" fill="#3effb6" stroke="none" /><path d="M 117.2510076193507 88.02491185347247 l 22.802197754252976 -15.828543704046492 a48.75757587065141,48.75757587065141 0 0,0 0.4726595028840594,0.6935694973630588 l -23.071281722805765 15.43369618341303" fill="#d9ff1c" stroke="none" /><path d="M 117.65298651832404 88.62581576622439 l 22.55986187043355 -14.535785485163462 a47.83722093070984,47.83722093070984 0 0,0 0.44003956933802385,0.6960369229616001 l -22.80672903601753 14.145300914487656" fill="#e5ff1a" stroke="none" /><line stroke="#e1ed5e" stroke-width="0.3" x1="172.23445277983987" x2="176.4835382374775" y1="55.19839476539836" y2="52.563006222186495" /><path d="M 173.08426987136738 54.67131705675599 a86.0,86.0 0 0,1 12.851231095245387,41.99856678651699" fill="none" id="id87" stroke="none" /><text fill="#e1ed5e" style="font-size:6.75px; font-family:Arial;" text-anchor="middle"><textPath startOffset="22.20632615414155" xlink:href="#id87">March</textPath></text><path d="M 117.84615892207809 88.93136811851018 l 22.854675908552956 -14.175038758035983 a47.893641156913155,47.893641156913155 0 0,0 0.42849802552060373,0.7043380879862124 l -23.095289732359785 13.779532896842689" fill="#e4ff1a" stroke="none" /><path d="M 118.21658344932153 89.55222093294921 l 23.040097703876217 -13.214215012548275 a47.56052673803775,47.56052673803775 0 0,0 0.40118970894049116,0.7136717262544237 l -23.26414505410914 12.815659776359057" fill="#e8ff1a" stroke="none" /><path d="M 118.3937258080291 89.86733742301442 l 24.449559524219747 -13.468676188850312 a48.91390691408976,48.91390691408976 0 0,0 0.39991055489195937,0.7409735223275182 l -24.677778178330172 13.045821683190335" fill="#d6ff1c" stroke="none" /><path d="M 118.56541770881063 90.18545643968196 l 38.475220806787156 -20.3397917851243 a64.52068181902987,64.52068181902987 0 0,0 0.510606127828588,0.9863285162985534 l -38.819636367775864 19.674490546565405" fill="#32ff46" stroke="none" /><path d="M 118.89224826269711 90.83032412892265 l 24.32801087531101 -11.808016240984914 a48.04221441924855,48.04221441924855 0 0,0 0.35469293787628187,0.7470737851442384 l -24.527662007029047 11.387500040200136" fill="#e2ff1b" stroke="none" /><path d="M 119.04729006885535 91.15688171328212 l 24.87138019983914 -11.547078679750891 a48.42117027191414,48.42117027191414 0 0,0 0.3444766975498683,0.7590087409345299 l -25.066459214352356 11.117247929974297" fill="#ddff1b" stroke="none" /><path d="M 119.34039704204932 91.81776055985345 l 38.94399305126653 -16.47582907466008 a63.28578411800484,63.28578411800484 0 0,0 0.4158126541279327,1.0069233239346618 l -39.221827392280666 15.803031180272116" fill="#30ff36" stroke="none" /><path d="M 119.47837535516314 92.15188598940014 l 35.46656228401182 -14.289981545877973 a59.237162719365344,59.237162719365344 0 0,0 0.37293023800987474,0.9490667782895625 l -35.7072860719034 13.677365762692625" fill="#57ff2a" stroke="none" /><path d="M 119.61058180528143 92.48833698450437 l 28.457951595033045 -10.900571161820611 a51.47420976234099,51.47420976234099 0 0,0 0.30981447259355943,0.8301487564858913 l -28.641370656128228 10.409099268305386" fill="#b5ff1f" stroke="none" /><path d="M 119.85752413597 93.16781622104841 l 25.449869573991435 -8.756287283815714 a47.91409348891186,47.91409348891186 0 0,0 0.26161712504338314,0.7822019046235148 l -25.596823992806588 8.316912276269885" fill="#e4ff1a" stroke="none" /><path d="M 119.97218684219823 93.5106431181261 l 26.33686860412656 -8.55736734657877 a48.6922224419659,48.6922224419659 0 0,0 0.2521434368429751,0.7993635991997868 l -26.48026752473774 8.102753580952566" fill="#d9ff1c" stroke="none" /><path d="M 120.18372546131832 94.20196356495316 l 40.068674335145914 -11.510245427408242 a62.689140225904794,62.689140225904794 0 0,0 0.2890065769375218,1.039710425669854 l -40.260867682649796 10.818823698319436" fill="#31ff2f" stroke="none" /><path d="M 120.28053869075195 94.5502522615342 l 41.35492657257513 -11.11281711989644 a63.82201135121217,63.82201135121217 0 0,0 0.2759653684812021,1.0634071381167134 l -41.54008827292663 10.399313556230876" fill="#31ff3d" stroke="none" /><path d="M 120.37134235888165 94.90015583598534 l 37.863290126149174 -9.478849050713022 a60.03174757172869,60.03174757172869 0 0,0 0.24232014938594254,1.0045734602857164 l -38.02084307579593 8.825690358767899" fill="#4eff2b" stroke="none" /><path d="M 120.53481517161879 95.60439243477599 l 26.909834362082467 -5.760220898621816 a48.519435499218254,48.519435499218254 0 0,0 0.16778645560762492,0.818186345689636 l -27.00500011360509 5.29615889676877" fill="#dcff1b" stroke="none" /><path d="M 120.6074358757038 95.95851677861258 l 26.397594078349215 -5.177035813486472 a47.90045860091272,47.90045860091272 0 0,0 0.15171734896311734,0.8104801447857715 l -26.482797151222194 4.721877591238138" fill="#e4ff1a" stroke="none" /><path d="M 120.73433829027371 96.67025291283417 l 41.486007485088365 -6.662277360759181 a63.017552959263256,63.017552959263256 0 0,0 0.16277765990080184,1.07250139821522 l -41.59454103842847 5.9471768501518785" fill="#30ff32" stroke="none" /><path d="M 120.78858239683441 97.02765380044208 l 43.828396932818315 -6.266572995175253 a65.27412692311998,65.27412692311998 0 0,0 0.1494591038319153,1.1136439244903322 l -43.92977203570806 5.511210728620258" fill="#33ff51" stroke="none" /><path d="M 120.83666639777658 97.38593545837742 l 37.02843151004079 -4.645402867928357 a58.31868845363056,58.31868845363056 0 0,0 0.11638645935168247,0.9971281077122934 l -37.10290832239606 4.007331021891211" fill="#62ff29" stroke="none" /><path d="M 120.91429891909075 98.10471618934814 l 27.1666823087145 -2.461883774733169 a48.27800394792324,48.27800394792324 0 0,0 0.06787776127270971,0.8282806155916725 l -27.205034553806705 1.9938892419337275" fill="#dfff1b" stroke="none" /><path d="M 120.94382443527127 98.46500227214037 l 26.700486491930604 -1.9569103161902754 a47.77210258630018,47.77210258630018 0 0,0 0.053048438037569215,0.8206358566467582 l -26.73021552097259 1.497015395290482" fill="#e6ff1a" stroke="none" /><path d="M 120.98425023603335 99.18683210126433 l 42.39266595471186 -1.6427727799872274 a63.424483840754654,63.424483840754654 0 0,0 0.03288500757386376,1.0912933045631144 l -42.41466265674137 0.9128093279991139" fill="#30ff38" stroke="none" /><line stroke="#e1ed5e" stroke-width="0.3" x1="184.98032266829074" x2="189.97916517819016" y1="98.17113171792111" y2="98.06355123074" /><path d="M 185.9800911702706 98.14961562048488 a86.0,86.0 0 0,1 -9.607161424134198,41.387399972396054" fill="none" id="id88" stroke="none" /><text fill="#e1ed5e" style="font-size:6.75px; font-family:Arial;" text-anchor="middle"><textPath startOffset="21.466115282336823" xlink:href="#id88">April</textPath></text><path d="M 120.99513854157772 99.54816195383933 l 39.092515666172346 -0.8413131384262467 a60.10156760165529,60.10156760165529 0 0,0 0.013356837533860137,1.0345017867488755 l -39.10120551082392 0.16827509361690848" fill="#4dff2c" stroke="none" /><path d="M 120.99980553446 99.90962569577887 l 34.07609056463639 -0.1466491187407284 a55.07640612114676,55.07640612114676 0 0,0 -0.004080119727957183,0.9480761327332913 l -34.073566147618926 -0.4399364921962476" fill="#88ff25" stroke="none" /><path d="M 120.9904718944345 100.63252640178507 l 31.620937458261917 0.9528646088632398 a52.63529100075003,52.63529100075003 0 0,0 -0.035084848131750425,0.9053840342623729 l -31.599850477278963 -1.497025890139619" fill="#a7ff21" stroke="none" /><path d="M 120.9764740272857 100.99374915477107 l 34.129576190229294 1.6168702827566517 a55.1678539044513,55.1678539044513 0 0,0 -0.053102078148220246,0.9481732772948439 l -34.09668776119354 -2.204115276386919" fill="#87ff25" stroke="none" /><path d="M 120.92983693683757 101.71520430193887 l 31.76600191119226 2.6032301779465215 a52.87249103507979,52.87249103507979 0 0,0 -0.08214220789791395,0.9064324193536935 l -31.716485107017267 -3.149643985848786" fill="#a4ff21" stroke="none" /><path d="M 120.89721153311464 102.0752229133903 l 30.98754797373361 3.0772560005420293 a52.1399684315401,52.1399684315401 0 0,0 -0.09637874163429506,0.8923474491003043 l -30.92998693059826 -3.6101997715271246" fill="#adff20" stroke="none" /><path d="M 120.8583938346157 102.4346265915055 l 57.483033847652635 6.7095157889698935 a78.8732821123255,78.8732821123255 0 0,0 -0.16900850741915324,1.3471640930844158 l -57.35902383098663 -7.697997636341705" fill="#46fff6" stroke="none" /><path d="M 120.81339534386255 102.79330883721812 l 8.041134898529986 1.079178711701654 a29.113228528036597,29.113228528036597 0 0,0 -0.07093361740988319,0.49610955495366754 l -8.021367230103502 -1.217433738635731" fill="#ff0200" stroke="none" /><path d="M 120.76222939487914 103.15116336523771 l 27.115577419449036 4.115435417186416 a48.426107041706935,48.426107041706935 0 0,0 -0.1321761666068142,0.8230611156326358 l -27.040719498480932 -4.581575762512256" fill="#ddff1b" stroke="none" /><path d="M 120.70491114924044 103.5080841355445 l 29.865433410348142 5.06017400378202 a51.29107911145607,51.29107911145607 0 0,0 -0.15498102123257196,0.8692158719250627 l -29.77390594677638 -5.573508626440301" fill="#b8ff1f" stroke="none" /><path d="M 120.5718875245553 104.21870165774334 l 38.362003931210836 7.866942174643939 a60.16033867061707,60.16033867061707 0 0,0 -0.21676618362739528,1.0126594447288655 l -38.220903708859 -8.526115438788974" fill="#4dff2c" stroke="none" /><path d="M 120.49622156327973 104.57218783832717 l 41.75091093398083 9.313570631643868 a63.77711025452537,63.77711025452537 0 0,0 -0.24824309041855425,1.069424736397841 l -41.584407277631726 -10.030864025390274" fill="#31ff3c" stroke="none" /><path d="M 120.41448212921028 104.9243191809786 l 40.47329586508621 9.762845115756841 a62.63413050535656,62.63413050535656 0 0,0 -0.2618365713017566,1.045906946275182 l -40.29924797948939 -10.45807990142942" fill="#31ff2f" stroke="none" /><path d="M 120.23288151984713 105.62410040840565 l 26.6579910695004 7.410077418492411 a48.668714014381194,48.668714014381194 0 0,0 -0.23130933390094888,0.8052181362429587 l -26.526489098713352 -7.867853030239952" fill="#daff1c" stroke="none" /><path d="M 120.13307415673323 105.97154293290107 l 21.24674931242773 6.301863029760746 a43.16162976838602,43.16162976838602 0 0,0 -0.21739737545226523,0.7104672015059642 l -21.135125164469333 -6.666657203818767" fill="#ffd914" stroke="none" /><path d="M 119.9155931802556 106.66101706037122 l 40.05762405914898 13.397769016514104 a63.23876726283541,63.23876726283541 0 0,0 -0.3541647080931663,1.0293684225438033 l -39.82106852011258 -14.08531014214721" fill="#30ff35" stroke="none" /><path d="M 119.79798401119884 107.00284435728193 l 41.663021493373506 14.736836579277503 a65.19255267940102,65.19255267940102 0 0,0 -0.3833189818592727,1.054729209124782 l -41.40317825050901 -15.451813585408415" fill="#33ff4f" stroke="none" /><path d="M 119.67450827220406 107.3425965602758 l 31.944710652027688 11.921879790203644 a55.096858453145465,55.096858453145465 0 0,0 -0.33925423687707434,0.8856857597767586 l -31.73476213555711 -12.469989116813547" fill="#88ff25" stroke="none" /><path d="M 119.41010516605496 108.01547362559984 l 25.87748450099984 10.686201478051562 a48.99712674773964,48.99712674773964 0 0,0 -0.32862843937214714,0.776780555404111 l -25.689705080435385 -11.130056559121835" fill="#d5ff1c" stroke="none" /><path d="M 119.26925614724726 108.34839909993367 l 27.792656823001465 12.041159733042258 a51.28896335297344,51.28896335297344 0 0,0 -0.35794546829853735,0.8070725361693167 l -27.581270269971654 -12.517780605704262" fill="#b8ff1f" stroke="none" /><path d="M 118.97047184881838 109.00673069616215 l 38.12605496669875 18.101347838299564 a63.204915127113416,63.204915127113416 0 0,0 -0.4750804770837254,0.9788064969816529 l -37.808821233000316 -18.75494329124649" fill="#30ff35" stroke="none" /><path d="M 118.81262510543309 109.33194174019688 l 15.957200670890638 7.915517699567418 a38.81257066521387,38.81257066521387 0 0,0 -0.30203818700588964,0.5959499973328461 l -15.81858381409848 -8.189021908602959" fill="#ff9a0e" stroke="none" /><path d="M 118.64920377521936 109.65438752849418 l 48.30418586470633 25.00628633839894 a75.39309449268438,75.39309449268438 0 0,0 -0.6065463910334598,1.1473571888597232 l -47.86658696544797 -25.8340585423448" fill="#41ffce" stroke="none" /><line stroke="#e1ed5e" stroke-width="0.3" x1="174.80103733775053" x2="179.2010983576182" y1="140.37084112569926" y2="142.7455964860345" /><path d="M 175.68104954172406 140.8457921977663 a86.0,86.0 0 0,1 -30.038265399797805,32.042727171017184" fill="none" id="id89" stroke="none" /><text fill="#e1ed5e" style="font-size:6.75px; font-family:Arial;" text-anchor="middle"><textPath startOffset="22.206326154141568" xlink:href="#id89">May</textPath></text><path d="M 118.30583269289576 110.29060199501023 l 24.1487068819566 13.575166745232048 a48.702801234379024,48.702801234379024 0 0,0 -0.4171000754185949,0.7272491389623028 l -23.911454810385624 -13.988835730052667" fill="#d9ff1c" stroke="none" /><path d="M 118.12598468904814 110.60418214915192 l 26.156666598007327 15.30234421898728 a51.30400874662766,51.30400874662766 0 0,0 -0.45249921777241653,0.7584147166929567 l -25.88938650453668 -15.75032102956634" fill="#b7ff1f" stroke="none" /><path d="M 117.75023020441432 111.22182372390056 l 35.67604918400936 22.554655939537923 a63.207736138423584,63.207736138423584 0 0,0 -0.5893222539452381,0.9146412252538557 l -35.28252206668707 -23.165418764713234" fill="#30ff35" stroke="none" /><path d="M 117.55443506779139 111.5257021239791 l 34.81069450737195 22.855631301798635 a62.6432987921146,62.6432987921146 0 0,0 -0.5995765963830173,0.8962856599717335 l -34.41211480557821 -23.451453875976178" fill="#31ff2f" stroke="none" /><path d="M 117.35343817320211 111.8261652097733 l 20.225291058885883 13.783299372195792 a45.47532921127359,45.47532921127359 0 0,0 -0.4463925290530971,0.6430617316290319 l -19.98503762267065 -14.129402366011842" fill="#fff917" stroke="none" /><path d="M 116.93607887273984 112.41649034213513 l 22.309712814987726 16.3561079152137 a48.66307199176085,48.66307199176085 0 0,0 -0.5010876688678106,0.6712888190249574 l -22.024863879424824 -16.73770961374797" fill="#daff1c" stroke="none" /><path d="M 116.71984013943494 112.70617746262582 l 24.220368823682666 18.4061750541571 a51.420610547447836,51.420610547447836 0 0,0 -0.5416137384561975,0.7001087672213163 l -23.8999482680084 -18.820361815491665" fill="#b6ff1f" stroke="none" /><path d="M 116.27256486870786 113.27417163493432 l 32.84071965260205 26.789467597803224 a63.381463418274635,63.381463418274635 0 0,0 -0.6969063540895554,0.8394685979737428 l -32.37471729861895 -27.350797452890735" fill="#30ff37" stroke="none" /><path d="M 116.0416608686014 113.55231037782055 l 26.014416562647042 21.977490388477843 a55.05524853632052,55.05524853632052 0 0,0 -0.6178181764298201,0.7186621159599568 l -25.632255876646443 -22.42202960359933" fill="#89ff24" stroke="none" /><path d="M 115.80600337817218 113.82643327865902 l 41.04321091094258 35.90289104871124 a75.53038370977913,75.53038370977913 0 0,0 -0.8644313955862334,0.971197836715439 l -40.41912066570801 -36.60406305516754" fill="#41ffd0" stroke="none" /><path d="M 115.32070863581623 114.36230785411682 l 5.824395015530333 5.46004471891541 a28.983462007768974,28.983462007768974 0 0,0 -0.34434208996643384,0.3610413046682687 l -5.729546374184936 -5.559493140166185" fill="#ff0000" stroke="none" /><path d="M 114.55890576462653 115.13401014063108 l 15.415743402438867 16.024694489384327 a43.235916399553716,43.235916399553716 0 0,0 -0.5407869478779797,0.5113478134380062 l -15.13762062017008 -16.287676939568254" fill="#ffda14" stroke="none" /><path d="M 114.29624159901734 115.38237550388516 l 25.770780056717594 27.728673519879013 a58.855150771113735,58.855150771113735 0 0,0 -0.7480222027145669,0.6833005467445132 l -25.289658304536164 -28.16816683321011" fill="#5cff2a" stroke="none" /><path d="M 114.0293411484842 115.62618273729858 l 27.823995289782832 30.990966024577524 a62.648705730459085,62.648705730459085 0 0,0 -0.808638608035515,0.7135295527925528 l -27.286414328840728 -31.465318719142363" fill="#31ff2f" stroke="none" /><path d="M 113.48314897796784 116.09983520530334 l 17.74792330178867 21.192277921283257 a48.642384575486304,48.642384575486304 0 0,0 -0.6465496454207234,0.5320663413055 l -17.380503527823254 -21.494639381445936" fill="#daff1c" stroke="none" /><path d="M 113.20401910651253 116.32954008644616 l 18.719830333670995 23.150997993813853 a50.772483198937266,50.772483198937266 0 0,0 -0.6843224259806366,0.5436671225326439 l -18.318550414973007 -23.469799030351624" fill="#beff1e" stroke="none" /><path d="M 112.63410532772338 116.77436683061366 l 20.766654445237872 27.57199425468025 a55.51765930691185,55.51765930691185 0 0,0 -0.7682983905604884,0.568368781916239 l -20.288971084258822 -27.925372985336256" fill="#83ff25" stroke="none" /><path d="M 112.34349029814194 116.9893568818739 l 24.838516976810265 34.18728569819795 a63.25780908917903,63.25780908917903 0 0,0 -0.8864306911951347,0.6324447619731447 l -24.246358957766244 -34.60977472201531" fill="#30ff35" stroke="none" /><path d="M 112.04921762599082 117.19931262002967 l 18.966831509636958 27.0736635914027 a54.05637544824601,54.05637544824601 0 0,0 -0.7666818699762227,0.5273307811481801 l -18.49799275503785 -27.39613516191597" fill="#95ff23" stroke="none" /><path d="M 111.7513745106137 117.40417183066458 l 8.251382125427545 12.220568089435819 a35.745426118236196,35.745426118236196 0 0,0 -0.5129048235117084,0.33992534917837336 l -8.039802603175872 -12.36079145970551" fill="#ff6c09" stroke="none" /><path d="M 111.45004920935366 117.60387380957326 l 11.988565417984223 18.43181535006881 a42.98766740425913,42.98766740425913 0 0,0 -0.6237678355062737,0.3981181451737843 l -11.66951578043102 -18.6354479240664" fill="#ffd714" stroke="none" /><path d="M 111.1453310114006 117.79835938074945 l 16.295350712969544 26.02260156545467 a51.703652015567805,51.703652015567805 0 0,0 -0.7583714409646045,0.4658536794494096 l -15.84500007207263 -26.29924371173246" fill="#b2ff20" stroke="none" /><line stroke="#e1ed5e" stroke-width="0.3" x1="143.8653032363475" x2="146.44561519142675" y1="172.8068346515853" y2="177.08958963109032" /><path d="M 144.38136562736335 173.6633856474863 a86.0,86.0 0 0,1 -40.68145358897372,12.25698825130547" fill="none" id="id90" stroke="none" /><text fill="#e1ed5e" style="font-size:6.75px; font-family:Arial;" text-anchor="middle"><textPath startOffset="21.466115282336833" xlink:href="#id90">June</textPath></text><path d="M 110.21172684928248 118.3499491758327 l 18.467599108563256 33.18532800998293 a58.97786476310595,58.97786476310595 0 0,0 -0.8913442324050287,0.4860319445954054 l -17.893632064289577 -33.49830060633811" fill="#5aff2a" stroke="none" /><path d="M 109.57404056367764 118.69057910512821 l 10.719257137153598 20.926287301337716 a44.511953848852,44.511953848852 0 0,0 -0.6849459022696112,0.3434460946416662 l -10.357457327201226 -21.107701236888683" fill="#ffec16" stroke="none" /><path d="M 109.2508944713604 118.85261126421891 l 11.678456433992997 23.79979579248287 a47.51068887155816,47.51068887155816 0 0,0 -0.737291982753482,0.353944956881677 l -11.267051783239282 -23.997295025864105" fill="#e9ff1a" stroke="none" /><path d="M 108.59647513512805 119.15986991738528 l 10.852212228730172 24.187468857865856 a47.510453787282316,47.510453787282316 0 0,0 -0.7490347136474976,0.3283548063619182 l -10.434256840424922 -24.370688217522233" fill="#e9ff1a" stroke="none" /><path d="M 108.2653958097858 119.30500536409082 l 13.815836912669397 32.268848564119594 a56.10207881666785,56.10207881666785 0 0,0 -0.8910306888991222,0.37245090022456295 l -13.258334764272812 -32.50188450736413" fill="#7cff26" stroke="none" /><path d="M 107.93186726928326 119.44442032107085 l 15.010846221390574 36.79804431851656 a60.741937169062915,60.741937169062915 0 0,0 -0.9715207854989247,0.3865881704539787 l -14.375204359849782 -37.0509793333766" fill="#46ff2c" stroke="none" /><path d="M 107.59598834532513 119.57807347666477 l 12.003117921064717 30.937109685312222 a54.184026210031,54.184026210031 0 0,0 -0.8724396581293936,0.3298820270105067 l -11.46880804217505 -31.13913996242936" fill="#93ff23" stroke="none" /><path d="M 106.91757812671514 119.82793768551818 l 8.726340928528584 25.012416337625666 a47.490941792387005,47.490941792387005 0 0,0 -0.774170799373831,0.2626407680553774 l -8.294500396217526 -25.158920092579166" fill="#e9ff1a" stroke="none" /><path d="M 106.57524785965236 119.94407469862006 l 8.345804155978309 25.314534913317377 a47.65479553265246,47.65479553265246 0 0,0 -0.781263281235612,0.2501358311703816 l -7.908819529651757 -25.454443591147466" fill="#e7ff1a" stroke="none" /><path d="M 105.88484417918355 120.15858648285463 l 10.67240534007298 36.55842015137075 a59.0843579400647,59.0843579400647 0 0,0 -0.9787431704714161,0.27660259637650547 l -10.041531001496962 -36.73671154108577" fill="#59ff2a" stroke="none" /><path d="M 105.53697534728816 120.25689768951611 l 13.315133455235843 48.71311125794844 a71.5000988846557,71.5000988846557 0 0,0 -1.1899984714338132,0.3142894120334709 l -12.474644540990532 -48.93509201928549" fill="#3cffa0" stroke="none" /><path d="M 105.18746579009965 120.34920634021253 l 9.14241267362846 35.86353134089115 a58.010492967994956,58.010492967994956 0 0,0 -0.9697330003257958,0.2383367779934009 l -8.523726388559455 -36.01558937719858" fill="#65ff29" stroke="none" /><path d="M 104.48393922423573 120.51570834832081 l 5.666258638100361 25.92526433389258 a47.537253394728886,47.537253394728886 0 0,0 -0.8009088643452554,0.16783823961457495 l -5.219158312325727 -26.0189585542337" fill="#e9ff1a" stroke="none" /><path d="M 104.13013068566511 120.58985236759428 l 5.383199041677379 26.83674730153555 a48.37133240543456,48.37133240543456 0 0,0 -0.8177804538212607,0.15672957030872856 l -4.920450973284415 -26.925434070192747" fill="#deff1b" stroke="none" /><path d="M 103.41894727170886 120.7198165907248 l 6.315029295277997 38.27091743880991 a59.78843534622689,59.78843534622689 0 0,0 -1.0168707084111017,0.1588142916514603 l -5.655322723258378 -38.37395003780848" fill="#51ff2b" stroke="none" /><path d="M 103.06178313531737 120.77559828337769 l 9.185349405952131 62.326794850133076 a84.0,84.0 0 0,0 -1.4322856352526758,0.1985017380295897 l -8.111135179512624 -62.47567115365527" fill="#4dd2ff" stroke="none" /><path d="M 102.34483914955558 120.86867818915974 l 2.3281008606963445 20.71971020399668 a41.850094593434804,41.850094593434804 0 0,0 -0.7165680878462505,0.07427521217540789 l -1.9711001762444913 -20.756714784627846" fill="#ffc612" stroke="none" /><path d="M 101.98527174616119 120.90594882070398 l 2.509634649147983 26.427764176468166 a47.54665676576277,47.54665676576277 0 0,0 -0.8154380288848581,0.07035942431646787 l -2.054352302521583 -26.4670478530633" fill="#e9ff1a" stroke="none" /><path d="M 101.62511606390274 120.93702456842531 l 2.1879023029892513 28.187626280052584 a49.27241043475665,49.27241043475665 0 0,0 -0.8461650509027656,0.058356496056450644 l -1.7023744913075558 -28.22111112062532" fill="#d2ff1c" stroke="none" /><path d="M 100.90346689309514 120.98055641714683 l 1.6319203460071126 37.89690264177328 a58.932023329315754,58.932023329315754 0 0,0 -1.0138543173103038,0.0349191926402295 l -0.9793456770221564 -37.9193786328396" fill="#5bff2a" stroke="none" /><line stroke="#e1ed5e" stroke-width="0.3" x1="102.19456741930631" x2="102.32365962044197" y1="184.97166512339345" y2="189.96999836594603" /><path d="M 102.22038585953345 185.97133177190398 a86.0,86.0 0 0,1 -42.740103519485714,-10.115201625700543" fill="none" id="id91" stroke="none" /><text fill="#e1ed5e" style="font-size:6.75px; font-family:Arial;" text-anchor="middle"><textPath startOffset="22.20632615414155" xlink:href="#id91">July</textPath></text><path d="M 100.54218724476979 120.99299961872073 l 1.1051483967868878 42.790346132593974 a63.80461511479949,63.80461511479949 0 0,0 -1.0981695177796236,0.018905984154586324 l -0.3684191891145965 -42.80302959402772" fill="#31ff3d" stroke="none" /><path d="M 99.81925306533755 120.99922214144158 l -0.3258555855611458 37.8579799431014 a58.85938228807899,58.85938228807899 0 0,0 -1.0130549231871084,-0.017440659220104713 l 0.9774701986409222 -37.84676180660213" fill="#5cff2a" stroke="none" /><path d="M 99.45781275523022 120.99299961872073 l -0.7342406819789975 28.4291349631054 a49.43861501778058,49.43861501778058 0 0,0 -0.8505316879674512,-0.029294031057190036 l 1.2234927216210918 -28.41228413362212" fill="#d0ff1d" stroke="none" /><path d="M 99.09653310690486 120.98055641714683 l -1.1411659786227477 26.500469888609356 a47.525029012384834,47.525029012384834 0 0,0 -0.8170048820221918,-0.04222982023824106 l 1.5971589290584285 -26.476900261608915" fill="#e9ff1a" stroke="none" /><path d="M 98.37488393609728 120.93702456842531 l -2.9696455355319524 38.25913909658391 a59.37421685218423,59.37421685218423 0 0,0 -1.018283884712384,-0.0878618182881147 l 3.627773737985878 -38.20235302601713" fill="#56ff2b" stroke="none" /><path d="M 98.01472825383883 120.90594882070398 l -4.084856872032017 43.01567726016949 a64.20919515353242,64.20919515353242 0 0,0 -1.0994063607333502,-0.11395796449140287 l 4.8246958293709605 -42.93898992722232" fill="#31ff42" stroke="none" /><path d="M 97.65516085044442 120.86867818915974 l -5.116246547133039 45.53374279372428 a66.82027620536664,66.82027620536664 0 0,0 -1.141903081630375,-0.13826856061573226 l 5.899277051814803 -45.438928704383194" fill="#35ff65" stroke="none" /><path d="M 96.93821686468263 120.77559828337769 l -6.16211433155723 41.81276278256319 a63.26439144890276,63.26439144890276 0 0,0 -1.0759891302942872,-0.16804737331786113 l 6.8809393254600355 -41.70049710189822" fill="#30ff36" stroke="none" /><path d="M 96.58105272829116 120.7198165907248 l -4.315819879170837 26.155125899420128 a47.50880819735138,47.50880819735138 0 0,0 -0.8057290906487536,-0.1400863303025177 l 4.76539794129164 -26.076960990596604" fill="#e9ff1a" stroke="none" /><path d="M 95.86986931433489 120.58985236759428 l -7.44841079440553 37.132403379460776 a58.872076838974735,58.872076838974735 0 0,0 -0.9918782604292602,-0.20785773332464244 l 8.086480516264178 -36.998689665409586" fill="#5bff2a" stroke="none" /><path d="M 95.51606077576429 120.51570834832081 l -9.753871638481824 44.62763115085698 a66.68110631406512,66.68110631406512 0 0,0 -1.1192260186619216,-0.2547321979603734 l 10.520617806536608 -44.453122219318914" fill="#35ff63" stroke="none" /><path d="M 95.16358092515715 120.4354850818985 l -8.239214163375197 34.81343025008467 a56.775125098418215,56.775125098418215 0 0,0 -0.9490819606710962,-0.2332612548835743 l 8.837249408789502 -34.666447736887065" fill="#74ff27" stroke="none" /><path d="M 94.46302465271185 120.25689768951611 l -6.196005765150267 22.667945402677834 a44.49949438223211,44.49949438223211 0 0,0 -0.7371422443182061,-0.20832376135918707 l 6.585279177573089 -22.557932847980123" fill="#ffec16" stroke="none" /><path d="M 94.11515582081647 120.15858648285463 l -9.915073859856673 33.964174377773 a56.38182910492595,56.38182910492595 0 0,0 -0.929293430478485,-0.2799884874929172 l 10.498242264775405 -33.788470521174354" fill="#79ff26" stroke="none" /><path d="M 93.42475214034765 119.94407469862007 l -13.649155505712258 41.40068675576886 a64.59261760743911,64.59261760743911 0 0,0 -1.0529527636113467,-0.3572187465409373 l 14.35977800226083 -41.1596050223298" fill="#32ff47" stroke="none" /><path d="M 93.08242187328487 119.8279376855182 l -13.316135907841957 38.16820108946992 a61.424386821847165,61.424386821847165 0 0,0 -0.9953103493232277,-0.3568828798212564 l 13.971165817794912 -37.933330668608704" fill="#3fff2d" stroke="none" /><path d="M 92.7421414339146 119.70592522655815 l -15.714829580338437 42.66757940218171 a66.4695304658027,66.4695304658027 0 0,0 -1.0702536982175959,-0.4046783706973015 l 16.446953499316315 -42.39075278137777" fill="#34ff60" stroke="none" /><path d="M 92.06813273071674 119.44442032107085 l -10.016583698360442 24.554957489815177 a47.5193869897645,47.5193869897645 0 0,0 -0.7547177042034042,-0.31547206156644114 l 10.437772862061308 -24.37890038522876" fill="#e9ff1a" stroke="none" /><path d="M 91.7346041902142 119.30500536409082 l -10.440178561075683 24.384519236817447 a47.52549918093653,47.52549918093653 0 0,0 -0.7492719145418278,-0.32845878826330327 l 10.858371150275255 -24.20119589525969" fill="#e9ff1a" stroke="none" /><path d="M 91.07499286063937 119.00905698771935 l -18.983769836021207 40.4328598308019 a65.6676580008881,65.6676580008881 0 0,0 -1.0190598983134276,-0.48921067935848755 l 19.676942402334877 -40.10009487494385" fill="#33ff56" stroke="none" /><path d="M 90.7491055286396 118.85261126421891 l -19.001426788223657 38.723446020589755 a64.13420326953718,64.13420326953718 0 0,0 -0.9868912938300257,-0.4948477822535622 l 19.665171989736443 -38.39063039742689" fill="#31ff41" stroke="none" /><path d="M 90.42595943632237 118.69057910512821 l -12.182644998481347 23.783134042451206 a47.72179455126889,47.72179455126889 0 0,0 -0.7278916639301399,-0.38079851628366557 l 12.590227564937983 -23.56990610722282" fill="#e6ff1a" stroke="none" /><line stroke="#e1ed5e" stroke-width="0.3" x1="58.666819895761336" x2="56.23545636021788" y1="174.27360380694188" y2="178.64263932499728" /><path d="M 58.180547188652646 175.14741091055294 a86.0,86.0 0 0,1 -31.652253787137756,-30.449443065178592" fill="none" id="id92" stroke="none" /><text fill="#e1ed5e" style="font-size:6.75px; font-family:Arial;" text-anchor="middle"><textPath startOffset="22.20632615414155" xlink:href="#id92">August</textPath></text><path d="M 89.7882731507175 118.34994917583269 l -14.183984909887418 25.487893090824276 a50.1687867785618,50.1687867785618 0 0,0 -0.7509819040908542,-0.4264271245665404 l 14.62061558089948 -25.2399628004631" fill="#c6ff1e" stroke="none" /><path d="M 89.4739219176387 118.17145234162733 l -13.290033276707625 22.94294270066435 a47.51421513569586,47.51421513569586 0 0,0 -0.7041881110999092,-0.41604674835684247 l 13.682989258835915 -22.71077738001376" fill="#e9ff1a" stroke="none" /><path d="M 88.8546689885994 117.79835938074946 l -23.70210146197561 37.850694561490236 a65.65943005123344,65.65943005123344 0 0,0 -0.9527439620875207,-0.6080862741246482 l 24.350127226110054 -37.43709385854178" fill="#33ff56" stroke="none" /><line stroke="#e1ed5e" stroke-width="0.3" x1="26.63291911575756" x2="22.317208475507996" y1="142.92168965132927" y2="145.44649492493687" /><path d="M 25.769776987707644 143.4266507060508 a86.0,86.0 0 0,1 -11.730757126820373,-40.83630448921669" fill="none" id="id93" stroke="none" /><text fill="#e1ed5e" style="font-size:6.75px; font-family:Arial;" text-anchor="middle"><textPath startOffset="21.46611528233685" xlink:href="#id93">September</textPath></text><line stroke="#e1ed5e" stroke-width="0.3" x1="15.007084014347285" x2="10.007500721073583" y1="101.09737516637583" y2="101.16192664675087" /><path d="M 14.007167355692545 101.11028546245083 a86.0,86.0 0 0,1 10.666146001902534,-42.60595125391555" fill="none" id="id94" stroke="none" /><text fill="#e1ed5e" style="font-size:6.75px; font-family:Arial;" text-anchor="middle"><textPath startOffset="22.20632615414155" xlink:href="#id94">October</textPath></text><line stroke="#e1ed5e" stroke-width="0.3" x1="26.266209847984243" x2="21.928928074336255" y1="57.71137044288968" y2="55.22380399835378" /><path d="M 25.398753493254645 57.2138571539825 a86.0,86.0 0 0,1 29.58750427330803,-30.4925239686951" fill="none" id="id95" stroke="none" /><text fill="#e1ed5e" style="font-size:6.75px; font-family:Arial;" text-anchor="middle"><textPath startOffset="21.46611528233685" xlink:href="#id95">November</textPath></text><line stroke="#e1ed5e" stroke-width="0.3" x1="56.76296977257108" x2="54.21961505331056" y1="26.818313649435495" y2="22.513508569990535" /><path d="M 56.25429882871898 25.957352633546506 a86.0,86.0 0 0,1 42.26535254187918,-11.944610805530505" fill="none" id="id96" stroke="none" /><text fill="#e1ed5e" style="font-size:6.75px; font-family:Arial;" text-anchor="middle"><textPath startOffset="22.20632615414155" xlink:href="#id96">December</textPath></text></svg>